# xmcd CD database file
#
# Track frame offsets:
#	150
#	22057
#	46030
#	65870
#	79722
#	107342
#	123667
#	145662
#	171405
#	195075
#
# Disc length: 2893 seconds
#
# Revision: 0
# Processed by: cddbd v1.4PL0 Copyright (c) Steve Scherf et al.
# Submitted via: CDex 1.50
#
DISCID=810b4b0a
DTITLE=Rosa Font Fuster - Music For Relaxation Vol 1
DYEAR=1900
DGENRE=New Age
TTITLE0=Onde te Escondeste?
TTITLE1=Os Pastores
TTITLE2=Buscando meus Amores
TTITLE3=Ó Bosques e Espessuras!
TTITLE4=Quem poderá curar-me?
TTITLE5=Mil Graças Derramando
TTITLE6=E Todos os que Vagueiam
TTITLE7=Mas, como Perseveras?
TTITLE8=Por que estás Ferido?
TTITLE9=Extingue meus Anseios
EXTD=
EXTT0=
EXTT1=
EXTT2=
EXTT3=
EXTT4=
EXTT5=
EXTT6=
EXTT7=
EXTT8=
EXTT9=
PLAYORDER=
